<svg xmlns="http://www.w3.org/2000/svg" width="40" height="24" viewBox="0 0 40 24">
  <path fill="#4C6C91" d="M39.8,2.2 C40.1333333,3.06666667 39.1,5.1 36.7,8.3 C36.3666667,8.76666667 35.9,9.36666667 35.3,10.1 C34.2333333,11.4333333 33.6333333,12.3333333 33.5,12.8 C33.2333333,13.3333333 33.3333333,13.9 33.8,14.5 C34,14.7666667 34.5333333,15.3333333 35.4,16.2 L35.5,16.2 C37.5,18.0666667 38.8333333,19.6 39.5,20.8 C39.5666667,20.8666667 39.6,20.9666667 39.6,21.1 C39.6,21.2333333 39.6666667,21.4 39.8,21.6 C39.9333333,21.8 39.9333333,22.0666667 39.8,22.4 C39.6666667,22.7333333 39.5,22.9 39.3,22.9 C39.1,22.9 38.6666667,23 38,23.2 L32.7,23.3 C32.3666667,23.3666667 32,23.3333333 31.6,23.2 C31.2,23.0666667 30.8333333,22.9 30.5,22.7 L30.1,22.5 C29.6333333,22.1666667 29.1333333,21.7 28.6,21.1 C28.0666667,20.5 27.6,19.9666667 27.2,19.5 C26.8,19.0333333 26.3666667,18.6333333 25.9,18.3 C25.4333333,17.9666667 25.0666667,17.8666667 24.8,18 C24.7333333,18 24.6666667,18.0333333 24.6,18.1 C24.5333333,18.1666667 24.4,18.2666667 24.2,18.4 C24,18.5333333 23.8666667,18.7333333 23.8,19 C23.7333333,19.2666667 23.6,19.6333333 23.4,20.1 C23.2,20.5666667 23.1666667,21.1 23.3,21.7 C23.3,21.9 23.2666667,22.0666667 23.2,22.2 C23.1333333,22.3333333 23.1,22.4666667 23.1,22.6 L23,22.7 C22.7333333,22.9666667 22.3666667,23.1333333 21.9,23.2 L19.5,23.2 C18.5,23.2666667 17.5,23.1333333 16.5,22.8 C15.5,22.4666667 14.5666667,22.1 13.7,21.7 C12.8333333,21.3 12.1333333,20.8666667 11.6,20.4 C11.0666667,19.9333333 10.5666667,19.5333333 10.1,19.2 L9.6,18.7 C9.46666667,18.5666667 9.26666667,18.3666667 9,18.1 C8.73333333,17.8333333 8.26666667,17.2 7.6,16.2 C6.93333333,15.2 6.2,14.1333333 5.4,13 C4.6,11.8666667 3.73333333,10.4 2.8,8.6 C1.86666667,6.8 0.966666667,4.93333333 0.1,3 C0.0333333333,2.8 6.30051566e-15,2.6 6.30051566e-15,2.4 C6.30051566e-15,2.2 6.30051566e-15,2.1 6.30051566e-15,2.1 L0.1,2 C0.3,1.73333333 0.7,1.6 1.3,1.6 L7,1.5 C7.13333333,1.56666667 7.3,1.63333333 7.5,1.7 C7.7,1.76666667 7.8,1.83333333 7.8,1.9 L7.9,1.9 C8.1,2.03333333 8.26666667,2.26666667 8.4,2.6 C8.66666667,3.26666667 9,3.96666667 9.4,4.7 C9.8,5.43333333 10.0666667,6 10.2,6.4 L10.5,7 C10.9,7.86666667 11.3,8.6 11.7,9.2 C12.1,9.8 12.4333333,10.2666667 12.7,10.6 C12.9666667,10.9333333 13.2666667,11.2 13.6,11.4 C13.9333333,11.6 14.1666667,11.7 14.3,11.7 C14.4333333,11.7 14.6,11.6666667 14.8,11.6 C14.8666667,11.6 14.9,11.5666667 14.9,11.5 C14.9,11.4333333 15,11.2666667 15.2,11 C15.4,10.7333333 15.5,10.4333333 15.5,10.1 C15.5,9.76666667 15.5666667,9.2 15.7,8.4 C15.8333333,7.6 15.8333333,6.73333333 15.7,5.8 C15.6333333,5.2 15.5666667,4.7 15.5,4.3 C15.4333333,3.9 15.3333333,3.56666667 15.2,3.3 L15.1,3.1 C14.7666667,2.63333333 14.1666667,2.33333333 13.3,2.2 C13.1,2.13333333 13.1333333,1.96666667 13.4,1.7 C13.6666667,1.43333333 13.9333333,1.2 14.2,1 C14.9333333,0.666666667 16.6,0.5 19.2,0.5 C20.3333333,0.566666667 21.2666667,0.666666667 22,0.8 C22.2666667,0.866666667 22.5,0.966666667 22.7,1.1 C22.9,1.23333333 23.0333333,1.4 23.1,1.6 C23.1666667,1.8 23.2333333,2.03333333 23.3,2.3 C23.3666667,2.56666667 23.4,2.86666667 23.4,3.2 C23.4,3.53333333 23.4,3.9 23.4,4.3 C23.4,4.7 23.3666667,5.2 23.3,5.8 C23.2333333,6.4 23.2333333,6.96666667 23.3,7.5 C23.3,7.7 23.3,8 23.3,8.4 C23.3,8.8 23.2666667,9.13333333 23.2,9.4 C23.1333333,9.66666667 23.1666667,9.93333333 23.3,10.2 C23.4333333,10.4666667 23.5333333,10.7333333 23.6,11 C23.6666667,11.2666667 23.8,11.4666667 24,11.6 C24.1333333,11.6 24.2666667,11.6 24.4,11.6 C24.5333333,11.6 24.7,11.5333333 24.9,11.4 C25.1,11.2666667 25.3666667,11.0333333 25.7,10.7 C26.0333333,10.3666667 26.4,9.9 26.8,9.3 C27.2,8.7 27.6666667,7.96666667 28.2,7.1 C29,5.63333333 29.7333333,4.06666667 30.4,2.4 C30.4666667,2.26666667 30.5333333,2.13333333 30.6,2 C30.6666667,1.86666667 30.7666667,1.8 30.9,1.8 L31,1.7 L31.3,1.6 L31.7,1.6 L37.7,1.6 C38.2333333,1.53333333 38.6666667,1.53333333 39,1.6 C39.3333333,1.66666667 39.5666667,1.8 39.7,2 L39.8,2.2 Z"/>
</svg>
