<svg xmlns="http://www.w3.org/2000/svg" width="41" height="34" viewBox="0 0 41 34">
  <path fill="#F93" d="M16.1,25.7 C16.3666667,25.1666667 16.4333333,24.6333333 16.3,24.1 C16.1666667,23.5666667 15.8333333,23.2 15.3,23 C14.7666667,22.8 14.2333333,22.8 13.7,23 C13.1666667,23.2 12.7,23.5333333 12.3,24 C11.9666667,24.5333333 11.8666667,25.0333333 12,25.5 C12.1333333,25.9666667 12.4666667,26.3666667 13,26.7 C13.5333333,27.0333333 14.1,27.0333333 14.7,26.7 C15.3,26.3666667 15.7666667,26.0333333 16.1,25.7 Z M18.2,23 C18.2666667,22.8 18.2666667,22.6 18.2,22.4 C18.1333333,22.2 18.0333333,22.0666667 17.9,22 C17.6333333,21.8666667 17.4,21.8666667 17.2,22 C17,22.1333333 16.8333333,22.2666667 16.7,22.4 C16.5,22.8666667 16.6,23.2 17,23.4 C17.2,23.4666667 17.4333333,23.4666667 17.7,23.4 C17.9666667,23.3333333 18.1333333,23.2 18.2,23 Z M22,25.3 C21.3333333,26.8333333 20.1666667,27.9666667 18.5,28.7 C16.8333333,29.4333333 15.1666667,29.5333333 13.5,29 C11.9,28.4666667 10.8,27.5 10.2,26.1 C9.6,24.7 9.66666667,23.3333333 10.4,22 C11.0666667,20.6 12.2,19.5666667 13.8,18.9 C15.4,18.2333333 16.9666667,18.0666667 18.5,18.4 C20.1,18.8666667 21.2666667,19.7666667 22,21.1 C22.7333333,22.4333333 22.7333333,23.8333333 22,25.3 Z M29,21.8 C28.8666667,20.3333333 28.2,19.0666667 27,18 C25.8,16.9333333 24.2666667,16.1 22.4,15.5 C20.5333333,14.9 18.4666667,14.7666667 16.2,15.1 C12.9333333,15.4333333 10.2,16.4666667 8,18.2 C5.8,19.9333333 4.8,21.9 5,24.1 C5.13333333,25.5666667 5.8,26.8333333 7,27.9 C8.2,28.9666667 9.76666667,29.8 11.7,30.4 C13.6333333,31 15.6666667,31.1333333 17.8,30.8 C21.1333333,30.4666667 23.9,29.4333333 26.1,27.7 C28.3,25.9666667 29.2666667,24 29,21.8 Z M35.9,21.9 C35.9,22.9 35.6333333,23.9333333 35.1,25 C34.5666667,26.0666667 33.7333333,27.0666667 32.6,28 C31.4666667,28.9333333 30.2333333,29.8333333 28.9,30.7 C27.5666667,31.5666667 25.8666667,32.1666667 23.8,32.5 C21.7333333,32.8333333 19.7333333,33.0666667 17.8,33.2 C15.8666667,33.3333333 13.8,33.1 11.6,32.5 C9.4,31.9 7.63333333,31.2 6.3,30.4 C4.96666667,29.6 3.66666667,28.4666667 2.4,27 C1.13333333,25.5333333 0.666666667,24.0666667 1,22.6 C1,20.8666667 1.53333333,19.0333333 2.6,17.1 C3.66666667,15.1666667 5.13333333,13.2333333 7,11.3 C9.46666667,8.83333333 12,7.1 14.6,6.1 C17.2,5.1 19.0333333,5.13333333 20.1,6.2 C21.0333333,7.13333333 21.1666667,8.7 20.5,10.9 C20.4333333,11.1 20.4333333,11.2333333 20.5,11.3 C20.5666667,11.3666667 20.6333333,11.4333333 20.7,11.5 C20.7666667,11.5666667 20.9,11.5666667 21.1,11.5 C21.3,11.4333333 21.4,11.4 21.4,11.4 L21.5,11.3 C23.5666667,10.4333333 25.4,10 27,10 C28.6,10 29.7333333,10.4666667 30.4,11.4 C31.0666667,12.3333333 31.0666667,13.6666667 30.4,15.4 C30.4,15.6 30.3666667,15.7333333 30.3,15.8 C30.2333333,15.8666667 30.2666667,15.9666667 30.4,16.1 C30.5333333,16.2333333 30.6333333,16.3 30.7,16.3 C30.7666667,16.3 30.8666667,16.3333333 31,16.4 C31.8666667,16.6666667 32.6333333,17 33.3,17.4 C33.9666667,17.8 34.5666667,18.4333333 35.1,19.3 C35.6333333,20.1666667 35.9,21.0333333 35.9,21.9 Z M34.2,7.9 C34.8666667,8.63333333 35.3,9.46666667 35.5,10.4 C35.7,11.3333333 35.6333333,12.2 35.3,13 C35.1666667,13.3333333 34.9333333,13.5666667 34.6,13.7 C34.2666667,13.8333333 33.9666667,13.8666667 33.7,13.8 C33.3,13.7333333 33.0333333,13.5333333 32.9,13.2 C32.7666667,12.8666667 32.7333333,12.5333333 32.8,12.2 C33.1333333,11.2666667 32.9666667,10.4333333 32.3,9.7 C31.6333333,8.96666667 30.8333333,8.7 29.9,8.9 C29.5,8.96666667 29.1666667,8.9 28.9,8.7 C28.6333333,8.5 28.4333333,8.23333333 28.3,7.9 C28.2333333,7.56666667 28.3,7.23333333 28.5,6.9 C28.7,6.56666667 28.9666667,6.4 29.3,6.4 C30.2333333,6.2 31.1333333,6.23333333 32,6.5 C32.8666667,6.76666667 33.6,7.23333333 34.2,7.9 Z M38.3,4.3 C39.5666667,5.7 40.4,7.36666667 40.8,9.3 C41.2,11.2333333 41.1,13.0333333 40.5,14.7 C40.3666667,15.1 40.1,15.3666667 39.7,15.5 C39.3,15.6333333 38.9333333,15.6666667 38.6,15.6 C38.2666667,15.5333333 37.9666667,15.3 37.7,14.9 C37.4333333,14.5 37.4,14.1 37.6,13.7 C38,12.5 38.0666667,11.2333333 37.8,9.9 C37.5333333,8.56666667 36.9333333,7.4 36,6.4 C35.0666667,5.33333333 33.9666667,4.6 32.7,4.2 C31.4333333,3.8 30.1333333,3.73333333 28.8,4 C28.4,4.13333333 28.0333333,4.06666667 27.7,3.8 C27.3666667,3.53333333 27.1333333,3.2 27,2.8 C26.8666667,2.4 26.9333333,2.03333333 27.2,1.7 C27.4666667,1.36666667 27.8,1.13333333 28.2,1 C30,0.666666667 31.8,0.766666667 33.6,1.3 C35.4,1.83333333 36.9666667,2.83333333 38.3,4.3 Z"/>
</svg>
